<?xml version="1.0" encoding="UTF-8"?><svg xmlns="http://www.w3.org/2000/svg" width="2058.99" height="2058.99" xmlns:xlink="http://www.w3.org/1999/xlink" viewBox="0 0 2058.99 2058.99"><defs><style>.cls-1,.cls-2,.cls-3,.cls-4,.cls-5,.cls-6,.cls-7,.cls-8,.cls-9,.cls-10{stroke:#000;stroke-miterlimit:10;}.cls-1,.cls-6,.cls-7{stroke-width:.5px;}.cls-1,.cls-11{fill:#dd8b06;}.cls-12{fill:url(#linear-gradient-6);}.cls-13{fill:url(#linear-gradient);}.cls-2{fill:url(#linear-gradient-5);}.cls-3{fill:url(#linear-gradient-4);}.cls-4{fill:url(#linear-gradient-3);}.cls-5{fill:url(#linear-gradient-2);}.cls-6{fill:#d68d0b;}.cls-7{fill:#b28d18;}.cls-8,.cls-14{fill:#fff;}.cls-9{fill:none;}.cls-15{fill:#754c24;}.cls-10,.cls-16{fill:#fef1e6;}</style><linearGradient id="linear-gradient" x1="1587.62" y1="928.21" x2="1599.15" y2="1103.15" gradientUnits="userSpaceOnUse"><stop offset="0" stop-color="#fff"/><stop offset=".76" stop-color="#754c24"/></linearGradient><linearGradient id="linear-gradient-2" x1="1378.51" y1="604.52" x2="1543.7" y2="604.52" gradientTransform="translate(61.23 83.88) rotate(3.4)" gradientUnits="userSpaceOnUse"><stop offset="0" stop-color="#ffdbbb"/><stop offset="1" stop-color="#fff7f0"/></linearGradient><linearGradient id="linear-gradient-3" x1="1467.22" y1="633.32" x2="1549.58" y2="633.32" xlink:href="#linear-gradient-2"/><linearGradient id="linear-gradient-4" x1="1668.34" y1="549.26" x2="1633.5" y2="500.1" xlink:href="#linear-gradient-2"/><linearGradient id="linear-gradient-5" x1="1616.62" y1="596.04" x2="1581.08" y2="556.3" xlink:href="#linear-gradient-2"/><linearGradient id="linear-gradient-6" x1="1672.19" y1="808.94" x2="1529.41" y2="545.78" gradientTransform="translate(61.23 83.88) rotate(3.4)" gradientUnits="userSpaceOnUse"><stop offset="0" stop-color="#ffdbbb"/><stop offset=".41" stop-color="#ffdcbd"/><stop offset=".62" stop-color="#ffe0c5"/><stop offset=".79" stop-color="#ffe7d2"/><stop offset=".94" stop-color="#fff1e5"/><stop offset="1" stop-color="#fff7f0"/></linearGradient></defs><g id="bloodroot-logo-main"><g id="MAIN-MAIN"><g id="subheading"><path id="E" class="cls-14" d="M1430.33,1116.57v4.31h-33.79c.23.71-.72,1.56-.72,1.8v17.25l1.08,1.08h30.19c1.47,0,1.47,5.03,0,5.03h-30.19l-1.08,1.08v20.13l1.08,1.08h33.07c.2,0,1.68.74,1.82,1.21l-.03,3.82h-41.69v-56.79h40.26Z"/><path id="V" class="cls-14" d="M1328.14,1116.69l19.62,46.16,2.42,2.62,20.56-47.75c1.48-2.07,4.85-.87,7.13-1.13l-25.15,56.44-6.85-.36-24.07-56.07,6.35.12Z"/><rect id="I" class="cls-14" x="1303.78" y="1116.54" width="6.5" height="56.86"/><path id="T" class="cls-14" d="M1291.59,1116.57v4.31h-21.57v51.4c-1.44,1.67-5.03,1.67-6.47,0v-51.4h-21.57v-4.31h49.6Z"/><path id="C" class="cls-14" d="M1234.07,1122.33c.85,1.21-3.35,4.03-4.57,4.23-18.99-17.75-52.42-1.03-44.54,25.82,4.6,15.66,25.51,21.99,39.23,15.05,3.07-1.55,5.58-6.25,9.16-4.5,4.81,2.35-5.26,8.16-7.4,9.13-22.76,10.28-54.39-6.99-47.46-34.52,5.91-23.44,37.92-28.89,55.58-15.21Z"/><path id="E-2" class="cls-14" d="M1165.07,1120.88h-34.51v20.13h30.55c1.62,1.16,1.03,3.29,1.08,5.03h-31.63v22.29h35.23v5.03h-40.62l-1.08-1.08v-55.71h39.9l1.08,4.31Z"/><path id="L" class="cls-14" d="M1080.96,1116.57v50.68l1.08,1.08h28.76c1.62,1.16,1.03,3.29,1.08,5.03h-36.66v-56.79h5.75Z"/><path id="L-2" class="cls-14" d="M1032.07,1168.33h29.83c1.62,1.16,1.03,3.29,1.08,5.03h-36.66v-56.79l4.56.11,1.19.97v50.68Z"/><path id="O" class="cls-14" d="M1000.69,1124.95c-20.89-21-63.47-8.11-59.14,24.99,2.04,15.58,19.74,24.98,34.05,24.89,27.13-.16,45.85-29.01,25.09-49.88ZM947.53,1144.85c-.01-6.04,2.79-13.73,7.16-17.96,17.63-17.09,53.13-4.32,47.72,22.92-5.79,29.16-54.81,26.16-54.87-4.96Z"/><path id="C-2" class="cls-14" d="M929.97,1124.45l-4.55,2.12c-21.42-20.71-58.52,5.59-41.31,31.93,7.32,11.21,24.22,14.53,36.09,9.02,3.62-1.68,6.47-6.56,10.08-4.14,3.14,2.11-4.12,6.33-6.09,7.41-17.4,9.51-47.5.91-50.18-20.87-3.3-26.83,23.23-40.87,46.49-32.83,2,.69,11.17,4.88,9.48,7.36Z"/><path id="O-2" class="cls-14" d="M835.5,1139.54c-4.14-26.75-44.87-32.43-61.16-12.92-9.67,11.58-8.52,30.51,3.54,39.97,22.42,17.58,62.58,5.03,57.62-27.05ZM829.26,1148.47c-2.53,24.26-39.61,28.95-51.55,9.32-9.41-15.46.85-35.44,18.38-38.17,18.66-2.9,35.24,8.98,33.17,28.85Z"/><path id="O-3" class="cls-14" d="M748.59,1126.88c-14.32-17.76-50.45-15.7-59.56,6.44-13.56,32.95,30.48,53.4,55.12,33.55,12.23-9.85,14.35-27.71,4.44-39.99ZM693.04,1144.84c0-5.86,2.92-13.84,7.16-17.96,14.26-13.88,44.62-8.22,47.73,13.24,5.53,38.12-54.84,39.85-54.89,4.72Z"/><path id="T-2" class="cls-14" d="M658.98,1173.36h-5.75v-50.68c0-.24-.95-1.09-.72-1.8h-21.57v-4.31h49.24c1.43,0,1.43,4.31,0,4.31h-20.13l-1.08,1.08v51.4Z"/><polygon id="T-3" class="cls-14" points="625.91 1116.57 625.91 1120.88 604.7 1120.88 603.62 1121.96 603.62 1173.36 597.87 1173.36 597.87 1120.88 575.59 1120.88 576.66 1116.57 625.91 1116.57"/><path id="A" class="cls-14" d="M574.67,1169.6c-7.05-17.02-18.14-33.78-25.22-50.98-1.21-3.04-4.83-2.11-7.51-1.9l-28.18,56.63c2.07-.2,5.23.65,6.9-.64,1.42-1.1,5.17-11.71,6.69-14l34.08-.31c5.88,4.49,4.38,17.36,14.15,14.95.14-1.37-.41-2.54-.91-3.76ZM530.3,1153.23l14.02-30.21,1.81.51,13.65,29.7h-29.47Z"/><path id="T-4" class="cls-14" d="M515.2,1116.57v4.31h-20.49l-1.08,1.08v51.4c-2.17-.2-4.94.8-6.47-1.08v-51.4h-22.29l1.08-4.31h49.24Z"/></g><g id="Main"><path id="T-5" class="cls-14" d="M1564.73,1084.62c-.41-.48-.73-1.1-.79-1.73-.34-3.64,7.36-11.88,9.33-16.27,3.26-7.27,4.96-16.62,5.65-24.54,1.5-17.15,2.13-34.61,3.57-51.78,1.25-14.87,6.84-43.78,2.52-57.17-2.33-7.24-13.88-6.61-19.96-5.56-9.69,1.67-17.29,5.94-24.25,12.76-7.13-14.03-6.31-33.08-.36-47.47.49-.94,1.01-.29,1.61-.23,5.17.55,11.07,2.95,16.43,3.76,17.71,2.7,45.2,3.29,63.21,2.27,13.62-.77,25.93-5.04,38.87-8.57,2.68-.73,4.42-1.45,5.15,1.87,1.83,8.32,1.5,29.24-.01,37.77-.33,1.88-2.11,10.24-4.4,9.82-4.72-3.76-10.45-6.44-16.12-8.36-11.62-3.94-24.1-7.73-28.4,7.12-8.13,28.07-6.17,68.32-3.38,97.27.95,9.88.79,20.34,3.8,29.98,1.76,5.63,6.7,11.86,8.6,17.33,1.43,4.09-10.41,5.45-13.69,6.02-13.88,2.44-27.58,2.68-41.12-1.59-1.61-.51-5.25-1.53-6.26-2.72Z"/><path id="O-4" class="cls-14" d="M1494.07,897.55c-21.97-18-47.92-13.72-66.61,6.38-34.33,36.9-35.2,117.28-.25,153.94,23.95,25.12,55.86,22.65,76.9-4.33,31.77-40.74,31.68-121.81-10.03-155.99ZM1479.46,1035.73c-9.98,11.27-23.03,9.5-32.11-1.6-20.51-25.07-20.33-83.78,1.05-108.18,9.68-11.05,21.48-9.98,30.93.72,20.26,22.95,20.53,86.02.13,109.06Z"/><path id="O-5" class="cls-14" d="M1347.16,893.86c-16.79-10.71-34.85-10.13-51.03,1.3-43.5,30.71-47.37,112.37-18.04,153.68,16.25,22.89,41.83,35.48,68.14,19.35,50.71-31.11,51.01-142.39.94-174.32ZM1340.53,1030.87c-8.44,12.9-22.24,18.16-33.75,5.09-18.48-20.99-18.12-61.45-11.66-87.16,3.12-12.41,12.81-32.13,28.11-30.68,4.9.47,11.49,5.15,14.6,8.77,6.45,7.51,11.08,23,12.97,32.69,4.07,20.86,1.73,52.93-10.27,71.29Z"/><path id="R" class="cls-14" d="M1297.81,1079.8c-11.25-.45-19.52-2.15-29.24-7.79-33.46-19.42-32.26-61.88-59.24-80.22-1.57-1.06-7.55-2.25-4.26-5.82,1.08-1.17,9.18-4.93,11.46-6.51,35.54-24.65,37.85-75.85-7.85-89.82-22.72-6.94-46.35,0-69.41-2.54l-35.55,2.19,7.78,9.82c15.97,22.07,18.3,61.88-.3,82.88-.43.49-1.08.75-1.73.78-.51.67,5.24,8.35,5.89,9.54,5.86,10.66,7.27,29.11,7.05,41.13-.24,13.32-1.96,26.74-6.78,39.24l-4.38,4.97c1.78,1.29,3.83,2.16,5.96,2.67,10.9,2.63,32.82,3.06,43.6.14,1.58-.43,2.82-1.38,4-2.46-6.36-7.93-9.11-19.69-10.57-29.68-1.48-10.15-2.41-38.28,3.39-46.53,4.21-5.98,15.56-4.38,21.11-.97,12.49,7.69,28,42.86,35.55,56.47,3.39,6.11,9.39,17.59,13.19,22.76,11.41,15.54,54.61,10.7,69.43,1.36.74-.46,1.26.04.92-1.62ZM1156.17,968.03c-.8-.53-.64-1.35-.74-2.14-1.12-8.94-.5-27.26,0-36.73.09-1.61.8-9.8,1.1-10.4.88-1.78,12.08-3.81,14.59-4.11,2.62-.31,7.48-.72,9.98-.64,17.04.53,38.79,12.92,30.8,32.8-7.22,17.94-38.47,26.44-55.73,21.22Z"/><path id="D" class="cls-14" d="M1073.98,911.11c-24.81-25.15-60.37-24.08-92.85-21.83-6.06.42-12.29.06-18.32.73-.17,2.25,2.8,2.6,4.07,3.84,11.9,11.65,15.35,27.09,16.09,43.22,1.7,36.89,4.17,94.71-10.68,128.13-.92,2.08-2.57,3.2-3.01,5.25,11.35-.42,22.78,1.6,34.13.71,35.19-2.74,69.16-27.6,83.55-59.51,14.07-31.19,11.89-75.32-12.98-100.54ZM1010.25,1041.7c-.58-5.43.48-10.97.71-16.19,1.56-34.82,2.53-69.38,2.91-104.26.02-1.76-1.54-5.03,1.17-5.96,3.35-1.15,13.24,1.1,16.93,2.25,8.78,2.74,18.02,9.37,23.56,16.7,27.98,37.01,4.73,106.01-45.28,107.46Z"/><path id="O-6" class="cls-14" d="M953.59,926.91c-17.7-39.19-56.16-57.36-88.8-21.33-31.25,34.49-32.74,104.21-7.24,142.53,26.21,39.39,69.44,34.91,91.74-5.19,19.17-34.48,20.49-80.14,4.3-116.01ZM925.79,1020.85c-9.2,22.78-28.96,33.03-44.07,8.13-14.14-23.31-14.59-63.88-4.07-88.62,3.76-8.83,11.22-20.83,21.74-22.13,12.79-1.58,21.79,12.24,26.07,22.44,9.63,22.93,9.65,57.11.34,80.18Z"/><path id="O-7" class="cls-14" d="M818.86,936.55c-13.53-39.29-50.3-69.45-87.78-36.01-40.76,36.37-40.41,127.77,1.65,163.11,31.83,26.74,65.94,5.05,81.4-27.22,14.4-30.05,15.55-68.45,4.73-99.88ZM778.43,1035.24c-7.34,8.21-16.47,11.46-26.2,4.62-27.06-19.03-26.55-96.98-1.24-117.24,9.64-7.72,19.47-4.82,27.09,3.69,20.95,23.39,21.24,85.57.35,108.94Z"/><path id="L-3" class="cls-14" d="M631.4,884.98c-1.53,4.49-6.69,7-8.65,11.83-4.82,11.86-6.69,43.19-7.2,56.78-.73,19.58-.74,42.32,0,61.89.22,5.86.55,15.12,1.63,20.65.15.77,1.1,3.08,1.82,3.39,2.66,1.16,11.82,2.69,14.92,2.88,21.27,1.3,45.61-8.3,55.34-28.03,1.21.86,1.1,1.81,1.04,3.12-.81,16.56-3.89,39.88,2.37,55.3.17.43,3.28,3.54.91,3.39-.23-.02-1.85-2.2-3.64-2.81-6.47-2.22-20.95-4.03-27.96-4.39-21-1.08-49.6-1.28-70.51,0-7.43.46-14.77,2.32-21.89,4.34-.98-.93,5.94-5.47,6.84-6.45,6.51-7.09,7.99-19.22,9.05-28.33,3.26-28,3.19-57.99,2.04-86.32-.73-18.14-.83-37.22-6.53-54.57l-10.69-11.23c4.54.57,8.82,2.22,13.39,2.78,5.51.67,11.05.13,16.41.06,10.86-.13,21.15.34,31.3-4.28Z"/><path id="B" class="cls-14" d="M541.5,990.34c-1.88-1.92-13.61-8.33-13.6-10.11,33.1-15.06,27.93-65.95,2.8-86.2-16.46-13.27-28.33-12.24-48.46-10.48-17.71,1.55-35.27,5.85-53.2,5.02l-35.59-2.86c3.89,6.03,9.69,10.74,13.96,16.59,16.47,22.6,20.43,54.14,5.2,78.4-1.25,1.99-6.28,7-6.26,8.85,5.28,4.4,9.78,12.43,11.91,19.08,7.88,24.6.3,59.06-21.49,73.4-1.21.8-3.05,3.92-4.75,4.96,4.73.37,10.03,1.26,14.71,1.47,30.54,1.38,60.85.45,91.36-.06,10.16-.17,18.89,1.21,29.05-2.52,36.37-13.38,38.84-70.53,14.36-95.53ZM462.3,916.79c18.17-3.58,55-.43,53.36,25.32-.72,11.26-6.44,15.9-15.58,21.08-13.72,7.77-29.2,8.65-43.9,2.84l-2.41-44.04c2.07-3.53,4.7-4.45,8.54-5.2ZM515.42,1044.32c-5.64,4.96-19.25,9.02-26.72,9.58-10.82.81-21.22-2.75-32.03-2.46-2.08-1.45-1.31-38.41-1.36-43.93-.02-2.18-1.42-4.19-.09-6.34,20.06-6.35,52.43-1.52,64.35,17.56,5.68,9.09,3.73,18.64-4.15,25.59Z"/></g></g></g><g id="SIMPLE_VERSION"><path class="cls-15" d="M1492.96,1085.23s5.05-11.85,52.17-13.16c0,0,47.15.48,49-9.41,0,0,11.18-16.76,24.24-4.25,0,0,7.52-25.27,5.95,10.29,0,0,9.14-31.12,18.88-12.8,0,0,65.44-12.4,76.34,8.94,0,0,27.24-20.9,30.82.96,3.58,21.86,1.25,3.36,1.25,3.36,0,0,58.43,5.3,33.94,20.63,0,0-35.21,24.61-119.2,15.05-4.7-.53-169.57,2.27-173.39-19.61Z"/><path id="T-6" class="cls-13" d="M1584.38,773.33c-33.43-27.82-16.68-6.04-13.93-2.32,47.83,64.64,13.99,139.06,15.03,147.19,4.38,34.28-2.99,72.11-2.99,72.11-1.44,17.17-2.07,34.63-3.57,51.78-.69,7.92-2.4,17.27-5.65,24.54-1.97,4.39-9.66,12.63-9.33,16.27.06.63.38,1.25.79,1.73,1.01,1.18,4.65,2.21,6.26,2.72,13.54,4.27,27.24,4.03,41.12,1.59,3.28-.58,15.12-1.94,13.69-6.02-1.91-5.47-6.85-11.7-8.6-17.33-3.01-9.65-3.39-20.06-3.8-29.98-2.28-54.84-5.01-66.88,3.87-98.77,1.96-7.05,8.93-128.71-32.88-163.5Z"/><g id="FLOWER"><g id="SHADOWS"><path id="petal6" class="cls-8" d="M1567.9,752.86s-7.98,4.13-24.71-12.89c-24.46-24.89-70.38-74.72-33.85-152.75,0,0,45.52,12.92,67.11,74.98,4.72,13.57,6.74,37.45,2.8,59.63-1.8,10.14-2.79,23.69-11.34,31.02Z"/><path id="petal7" class="cls-14" d="M1481.24,671.03s65.85,33.55,87.16,82.27c0,0-89.49,3.15-132.61-36.48,0,0-27.18-28.68-22.57-45.92,0,0,33.22-21.05,68.01.13Z"/><path d="M1473.06,712.07c15.75,5.45,32.73,12.25,48.14,18.75,15.78,6.84,31.92,13.17,46.73,21.99,0,0-.05.08-.05.08-7.39-4.42-15.31-7.85-23.17-11.34-22.64-10.03-49.12-19.65-71.64-29.49h0Z"/><path d="M1494.55,729.72c24.11,8.71,48.07,18.36,73.37,23.09,0,0-.02.1-.02.1-12.7-2.05-25.12-5.5-37.37-9.37-12.16-3.92-24.67-8.23-35.98-13.81h0Z"/><path d="M1520.58,717.29c8.78,4.67,17.18,10.03,25.28,15.8,4.06,2.86,8.08,5.8,11.95,8.93,3.7,3.23,7.96,6.29,10.15,10.82,0,0-.09.03-.09.03-2.28-4.41-6.61-7.36-10.37-10.46-11.69-9.15-25.01-16.59-36.91-25.13h0Z"/><path id="petal5" class="cls-8" d="M1567.9,752.86c1.14-120.75,31.82-157.01,43.74-166.56,2.93-2.34,5.61-4.96,8.25-7.62,4.31-4.35,12.09-8.65,20.86,3.08,0,0,39.29,59.58-18.4,120.24l-54.45,50.86Z"/><g id="petal1-shadow"><path id="shadow" class="cls-5" d="M1567.9,752.86s-61.98,64.54-167.07,26.87c0,0,29.98,33.39,117.56,11.4l49.51-38.28"/><path class="cls-10" d="M1567.9,752.86s-61.98,64.54-167.07,26.87c0,0,15.52-8.33,26.65-22.21,3.14-3.91,13.82-9.41,18.68-10.66,25.38-6.53,67.55-16.59,121.75,5.99Z"/><path d="M1567.9,752.91c-13.99-1.6-28.18-3.1-42.25-2.23-3.5.27-6.94,1.2-10.41,1.79-10.44,1.81-21.1,3.24-31.72,2.48,0,0,0-.1,0-.1h2.65c13.29-.31,26.28-3.26,39.41-4.96,14.1-.61,28.59.88,42.31,3.03h0Z"/><path d="M1500.93,763.49c12.4-3.03,24.95-5.93,37.73-6.71,4.12-.17,8.65-.38,12.74-.72,4.91-.45,9.94-.72,14.67-2.21.66-.23,1.33-.52,1.8-1.03,0,0,.08.06.08.06-.49.56-1.17.86-1.82,1.11-4.72,1.61-9.75,2-14.67,2.57-4.08.4-8.63.7-12.75.94-7.07.39-13.98,2.05-20.97,3.2-5.55.85-11.38,2.23-16.8,2.78h0Z"/></g><g id="petal2-shadow"><path class="cls-10" d="M1568.48,753.55s-94.83,47.67-80.47,54.69c0,0,11.02,5.39,29.37,0,0,0,26.39-5.56,37.04-5.82,3.09-.08,6.14-.86,8.87-2.3,6.62-3.49,16.41-11.16,15.61-25.81,0,0,.54-20.42-10.41-20.76Z"/><path class="cls-4" d="M1488.01,808.24s11.02,5.39,29.37,0c0,0,26.39-5.56,37.04-5.82,3.09-.08,6.14-.86,8.87-2.3,2.48-1.31,5.41-3.21,8.06-5.84,0,0-1.65,10.43-24.43,20.24,0,0-27.55,13.18-58.91-6.28Z"/><path class="cls-16" d="M1568.48,753.55s-13.39,7.95-23.46,23.32"/><path d="M1568.5,753.59c-9.3,6.13-16.53,14.68-23.45,23.3,0,0-.08-.05-.08-.05,2.63-4.93,6.22-9.31,10.31-13.11,4.01-3.73,8.51-7.69,13.22-10.14h0Z"/><path class="cls-16" d="M1548.41,789.28s20.25-28.13,20.06-35.73"/><path d="M1548.37,789.25c3.54-5.9,7.38-11.59,11.14-17.34,1.84-2.9,3.63-5.83,5.25-8.85,1.54-3,3.38-6.09,3.66-9.51,0-.06.1-.07.1,0-.15,3.48-1.88,6.64-3.32,9.74-1.55,3.08-3.25,6.08-5.02,9.04-3.49,5.81-7.39,12.11-11.82,16.92h0Z"/><path d="M1564.61,783.16c1.02-4.96,2.32-9.82,3.46-14.74.82-4.82,2.27-10.14.37-14.84-.03-.05.05-.11.09-.05,3.27,5.96-.86,23.93-3.91,29.64h0Z"/></g><g id="petal3-shadow"><path class="cls-10" d="M1567.9,752.86s69.34-82.78,107.84-93.65c0,0,40.35-15.37,30.93.92-12.73,22.01-26.03,48.63-64.41,68.2,0,0-51.97,31.54-74.35,24.53Z"/><path id="shadow-2" class="cls-3" d="M1642.26,728.33c38.38-19.57,51.68-46.19,64.41-68.2,0,0-7.65,52.77-63,81.34l-1.41-13.14Z"/><path d="M1630.62,706.43c-11.1,6.83-21.8,14.26-32,22.37-5.06,3.95-9.84,8.71-14.76,12.83-3.68,3-8.14,5.7-12.2,8.18-1.34.89-2.81,1.73-3.71,3.08l-.09-.05c.91-1.4,2.36-2.28,3.69-3.2,4-2.56,8.39-5.34,11.99-8.4,4.86-4.2,9.57-9.02,14.57-13.06,9.98-8.27,20.94-16.23,32.51-21.75h0Z"/><path d="M1626.97,721.31c-9.4,6.06-19.12,11.58-28.98,16.84-9.24,4.93-18.42,10.05-28.08,14.1,0,0-1.99.66-1.99.66,0,0-.02-.1-.02-.1l1.96-.7c19.64-8.97,37.92-21.36,57.12-30.8h0Z"/></g><g id="petal4-shadow"><path class="cls-10" d="M1568.48,753.55s8.69,25.9,29.72,23.82c7.21-.71,15.87-4.71,26.13-14.17,0,0,27.64-27.08,25.43-34.92-.36-1.28-1.51-2.04-3.7-2.1,0,0-10.52-.63-40.92,13.26,0,0-21.32,12.65-34.15,13.99-.88.09-1.72.13-2.51.11Z"/><path class="cls-2" d="M1627.82,775.53c-20.8,10.1-32.95,1.94-32.95,1.94,7.21-.71,19.2-4.81,29.46-14.27,0,0,27.64-27.08,25.43-34.92,0,0,3.67,15.85-4.36,29.21,0,0-4.82,11.85-17.57,18.04Z"/><path d="M1593.13,772.28c-10.12-3.07-18.92-10.23-24.77-18.95-.03-.05.05-.11.08-.06,3.09,4.25,6.91,7.91,11.19,10.94,4.2,3.03,9.26,5.55,13.49,8.07h0Z"/><path d="M1528.13,689.15c12.75,17.74,29.24,44.92,40.82,63.81,7.86,6.39,21.09,6.44,31.28,3.99,3.63-.71,7.26-2.08,10.69-3.15-3.18,1.68-7.03,2.64-10.58,3.63-10.65,2.61-23.42,3.51-32.48-3.78-7.11-11.05-24.02-36.99-30.4-47.99-3.23-5.42-6.43-10.87-9.5-16.4-.06-.1.1-.21.17-.11h0Z"/><path d="M1600.93,747.2c-8.52,6.08-22.38,10.79-32.47,6.39-.06-.02-.02-.12.04-.09,11.03,4.18,22.64-2.23,32.43-6.3h0Z"/></g></g><path id="PETAL_COLOR" class="cls-12" d="M1676.25,659.8c-10.86,3.07-24.17,11.86-37.69,22.89,33.82-53.15,2.7-100.34,2.7-100.34-8.76-11.73-16.54-7.43-20.86-3.08-2.64,2.66-5.32,5.28-8.25,7.62-8.16,6.53-25.07,25.56-35.33,75.54-21.64-61.74-66.98-74.62-66.98-74.62-18.54,39.6-15.84,71.93-5.49,97.43-13.03-8.74-22.61-13.62-22.61-13.62-34.79-21.18-68.01-.13-68.01-.13-4.61,17.25,22.57,45.92,22.57,45.92,11.57,10.64,26.49,18.19,42.12,23.55-12.43,1.61-23.08,4.26-31.76,6.49-4.86,1.25-15.54,6.74-18.68,10.66-11.13,13.88-26.65,22.21-26.65,22.21,46.12,16.53,83.93,13.38,111.85,4.63-17.42,10.77-30.71,20.92-24.67,23.87,0,0,11.02,5.39,29.37,0,0,0,26.39-5.56,37.04-5.82,3.09-.08,6.14-.86,8.87-2.3,6.62-3.49,16.41-11.16,15.61-25.81,0,0,.05-1.82-.18-4.37,4.69,4.65,11.1,8.26,19.48,7.44,7.21-.71,15.87-4.71,26.13-14.17,0,0,27.64-27.08,25.43-34.92-.35-1.23-1.44-1.98-3.48-2.08,35.3-19.34,48.11-44.85,60.39-66.07,9.43-16.29-30.93-.92-30.93-.92ZM1566.21,755.55c.8-.72,1.37-1.28,1.74-1.63.63-.01.97-.02.97-.02-.05-.12-.11-.23-.16-.34.72.21,1.47.38,2.25.52-.7.06-1.38.09-2.02.07,0,0-1.01.51-2.78,1.41Z"/><g id="PETAL_OUTLINES"><g id="petal3-shadow-2"><path class="cls-9" d="M1570.49,753.49h0c-.77-.14-1.51-.31-2.23-.52-.03,0-.06-.01-.08-.02l-.27-.08s.01,0,.01-.02c0,0,.01,0,.02-.02,0,0,.02,0,.02-.02.02-.03.04-.06.07-.1.03-.02.05-.05.07-.08.15-.18.41-.48.74-.89l.03-.03c.7-.83,1.78-2.08,3.17-3.69,10.37-11.96,38.61-43.57,66.01-65.93,13.52-11.04,26.82-19.82,37.68-22.9,0,0,40.35-15.36,30.93.93-12.28,21.22-25.09,46.72-60.38,66.06"/><path d="M1630.62,706.43c-11.1,6.83-21.8,14.26-32,22.37-5.06,3.95-9.84,8.71-14.76,12.83-3.68,3-8.14,5.7-12.2,8.18-1.34.89-2.81,1.73-3.71,3.08l-.09-.05c.91-1.4,2.36-2.28,3.69-3.2,4-2.56,8.39-5.34,11.99-8.4,4.86-4.2,9.57-9.02,14.57-13.06,9.98-8.27,20.94-16.23,32.51-21.75h0Z"/><path d="M1626.97,721.31c-9.4,6.06-19.12,11.58-28.98,16.84-9.24,4.93-18.42,10.05-28.08,14.1,0,0-1.99.66-1.99.66,0,0-.02-.1-.02-.1l1.96-.7c19.64-8.97,37.92-21.36,57.12-30.8h0Z"/></g><g id="petal4-shadow-2"><path class="cls-9" d="M1569.11,755.2c-.34-.84-.55-1.4-.61-1.59,0-.02-.02-.04-.03-.06h.1c.05,0,.1,0,.15,0,.56,0,1.15-.01,1.76-.07.17,0,.33-.03.5-.05,12.82-1.34,34.14-13.99,34.14-13.99,30.41-13.89,40.93-13.27,40.93-13.27h.23c2.05.12,3.12.88,3.47,2.1,2.21,7.83-25.43,34.91-25.43,34.91-10.27,9.46-18.92,13.46-26.14,14.17-8.37.82-14.79-2.78-19.47-7.44"/><path d="M1568.54,753.58c-.23.15-.34.19-.41.21-.08.02.01-.08.03-.13.05-.1.13-.32.28-.39.15-.04.27-.07.37-.08.05,0,.17-.07.12,0-.01.03-.23.27-.4.39h0Z"/><path d="M1577.59,763.07c5.24,3.01,10.09,6.74,15.6,9.18-2.87-.81-5.69-2.25-8.38-3.66-2.58-1.38-5.67-3.23-7.22-5.52h0Z"/><path d="M1568.47,753.22c12.94,7.25,28.84,5.29,42.33.52.11-.05.2.13.08.18-11.63,5.26-33.32,10.35-42.41-.7h0Z"/><path d="M1600.93,747.2c-8.52,6.08-22.38,10.79-32.47,6.39-.06-.02-.02-.12.04-.09,11.03,4.18,22.64-2.23,32.43-6.3h0Z"/></g><g id="petal2-shadow-2"><path class="cls-9" d="M1568.48,753.55s-94.83,47.67-80.47,54.69c0,0,11.02,5.39,29.37,0,0,0,26.39-5.56,37.04-5.82,3.09-.08,6.14-.86,8.87-2.3,6.62-3.49,16.41-11.16,15.61-25.81,0,0,.54-20.42-10.41-20.76Z"/><path class="cls-16" d="M1568.48,753.55s-13.39,7.95-23.46,23.32"/><path d="M1568.5,753.59c-9.3,6.13-16.53,14.68-23.45,23.3,0,0-.08-.05-.08-.05,2.63-4.93,6.22-9.31,10.31-13.11,4.01-3.73,8.51-7.69,13.22-10.14h0Z"/><path class="cls-16" d="M1548.41,789.28s20.25-28.13,20.06-35.73"/><path d="M1548.37,789.25c3.54-5.9,7.38-11.59,11.14-17.34,1.84-2.9,3.63-5.83,5.25-8.85,1.54-3,3.38-6.09,3.66-9.51,0-.06.1-.07.1,0-.15,3.48-1.88,6.64-3.32,9.74-1.55,3.08-3.25,6.08-5.02,9.04-3.49,5.81-7.39,12.11-11.82,16.92h0Z"/><path d="M1564.61,783.16c1.02-4.96,2.32-9.82,3.46-14.74.82-4.82,2.27-10.14.37-14.84-.03-.05.05-.11.09-.05,3.27,5.96-.86,23.93-3.91,29.64h0Z"/></g><g id="petal1-shadow-2"><path class="cls-9" d="M1565.72,754.95c.78-.71,1.36-1.26,1.72-1.62h0c.05-.06.11-.1.15-.15.12-.09.21-.19.28-.28.01,0,.01-.02.02-.02h.01c-5.96-2.5-11.79-4.59-17.46-6.33,0,0,0,0,0-.01-9.83-3.02-19.2-5-28.07-6.18-16.61-2.22-31.5-1.67-44.46.01-12.43,1.62-23.07,4.26-31.75,6.5-4.85,1.24-15.55,6.74-18.68,10.65-11.12,13.88-26.64,22.21-26.64,22.21,46.1,16.52,83.9,13.38,111.82,4.65"/><path d="M1567.9,752.91c-13.99-1.6-28.18-3.1-42.25-2.23-3.5.27-6.94,1.2-10.41,1.79-10.44,1.81-21.1,3.24-31.72,2.48,0,0,0-.1,0-.1h2.65c13.29-.31,26.28-3.26,39.41-4.96,14.1-.61,28.59.88,42.31,3.03h0Z"/><path d="M1500.93,763.49c12.4-3.03,24.95-5.93,37.73-6.71,4.12-.17,8.65-.38,12.74-.72,4.91-.45,9.94-.72,14.67-2.21.66-.23,1.33-.52,1.8-1.03,0,0,.08.06.08.06-.49.56-1.17.86-1.82,1.11-4.72,1.61-9.75,2-14.67,2.57-4.08.4-8.63.7-12.75.94-7.07.39-13.98,2.05-20.97,3.2-5.55.85-11.38,2.23-16.8,2.78h0Z"/></g><path class="cls-9" d="M1477.91,740.37c-15.63-5.36-30.54-12.91-42.11-23.55,0,0-27.19-28.67-22.58-45.92,0,0,33.22-21.06,68.01.12,0,0,9.58,4.88,22.6,13.6h0c14.42,9.68,33.08,24.08,47.66,41.83,6.54,7.95,12.26,16.58,16.41,25.76.06.12.12.25.17.38,0,.01.02.02.02.03,0,.01,0,.02.02.03h0s.04.08.05.12c.03.05.05.11.08.18.05.11.1.23.15.34,0,0-.33.01-.95.02h0s-.04,0-.06,0h0"/><line class="cls-9" x1="1522.8" y1="750.56" x2="1522.79" y2="750.56"/><path d="M1473.06,712.07c15.75,5.45,32.73,12.25,48.14,18.75,15.78,6.84,31.92,13.17,46.73,21.99,0,0-.05.08-.05.08-7.39-4.42-15.31-7.85-23.17-11.34-22.64-10.03-49.12-19.65-71.64-29.49h0Z"/><path d="M1567.9,752.91c-3.97.2-7.73-1.46-11.54-2.35,0,0,0,0,0,0-.03,0-.06-.04-.04-.02.03.01.02,0,.01,0v-.1c3.67.66,7.89.66,11.44,2.3-.03,0,.13.06.13.06,0,0,0,.1,0,.1h0Z"/><path d="M1494.55,729.72c9.51,2.91,18.49,7.2,27.84,10.59,0,0-.03.09-.03.09-4.74-1.5-9.44-3.09-14.12-4.77-4.61-1.67-9.66-3.35-13.68-5.91h0Z"/><path d="M1520.58,717.29c8.78,4.67,17.18,10.03,25.28,15.8,4.06,2.86,8.08,5.8,11.95,8.93,3.7,3.23,7.96,6.29,10.15,10.82,0,0-.09.03-.09.03-2.28-4.41-6.61-7.36-10.37-10.46-11.69-9.15-25.01-16.59-36.91-25.13h0Z"/><path class="cls-9" d="M1638.06,682.1c33.81-53.15,2.7-100.34,2.7-100.34-8.76-11.73-16.55-7.43-20.85-3.08-2.64,2.66-5.33,5.27-8.26,7.62-8.15,6.53-25.08,25.55-35.32,75.54-4.72,22.98-8.02,52.51-8.41,90.38"/><path class="cls-9" d="M1503.84,684.64h0c-10.35-25.51-13.03-57.83,5.5-97.43,0,0,45.35,12.87,66.98,74.62"/></g><rect class="cls-6" x="1546.29" y="727.26" width="1" height="43" transform="translate(517.24 2124.72) rotate(-79.02)"/><path class="cls-1" d="M1568.33,752.59l-32.81-52.4c2.26-2.31.52-9.88-4.16-17.54-4.95-8.12-11.32-13.26-14.22-11.5s-1.23,9.78,3.72,17.9c4.74,7.76,10.76,12.79,13.81,11.67l32.81,52.4.85-.53Z"/><path class="cls-1" d="M1568.27,752.52l-46.38-51.5c.86-2.29-1.54-7.11-5.88-11.47-4.86-4.88-10.31-7.34-12.16-5.5s.59,7.3,5.45,12.18c4.74,4.76,10.02,7.2,12,5.62l46.24,51.34.74-.67Z"/><path class="cls-1" d="M1568.23,752.48l-48.26-42.18c.89-1.76-.95-5.11-4.34-7.72-3.58-2.77-7.52-3.67-8.8-2.02-1.28,1.66.58,5.24,4.16,8.01,3.19,2.47,6.67,3.45,8.29,2.46l48.28,42.2.66-.75Z"/><path class="cls-1" d="M1568.15,752.42l-31.22-17.66c.85-2.14-2.03-5.74-6.62-8.2-4.74-2.53-9.49-2.88-10.62-.78-1.13,2.11,1.8,5.87,6.54,8.4,4.21,2.25,8.42,2.77,10.1,1.38l31.32,17.72.49-.87Z"/><path class="cls-1" d="M1568.15,753.29l-.5-.87-13.69,7.8c-1.24-.93-5.32-.08-9.69,2.11-4.8,2.41-8.12,5.5-7.41,6.92s5.18.62,9.98-1.79c4.19-2.1,7.25-4.73,7.49-6.3l13.81-7.88Z"/><path class="cls-1" d="M1568.35,753.07l-.9-.43-2.3,4.84c-1.06.37-2.69,2.26-4.05,4.79-1.68,3.14-2.29,6.07-1.38,6.57.92.49,3.02-1.65,4.7-4.79,1.44-2.7,2.1-5.25,1.67-6.22l2.26-4.76Z"/><path class="cls-1" d="M1578.55,771.06c-1.47-3.38-3.59-5.81-5.05-5.92l-5.13-12.47-.92.38,5.12,12.45c-1,1.07-.71,4.34.79,7.8,1.66,3.84,4.18,6.45,5.61,5.83s1.25-4.24-.42-8.08Z"/><path class="cls-1" d="M1590.03,758.2c-3.34-1.52-6.53-1.9-7.7-1.01l-14.27-4.81-.32.95,14.13,4.76c-.04,1.47,2.38,3.7,5.82,5.26,3.81,1.73,7.43,1.98,8.07.56s-1.92-3.98-5.73-5.71Z"/><path class="cls-1" d="M1598.44,756.23c-5.25-1.27-9.86-1.19-10.92.11l-19.52-3.97-.2.98,19.55,3.97c.55,1.62,4.52,3.71,9.61,4.95,5.74,1.39,10.72,1.17,11.13-.5.4-1.67-3.92-4.15-9.66-5.54Z"/><path class="cls-1" d="M1611.13,727.37c-1.14-1.89-6.17-.95-11.22,2.09-4.69,2.82-7.75,6.46-7.27,8.49l-24.98,14.48.5.87,25.01-14.49c1.6,1.33,6.22.32,10.87-2.49,5.06-3.05,8.24-7.05,7.1-8.94Z"/><path class="cls-1" d="M1591.62,725.71c-.82-.74-4.08,1.5-7.29,5.02-2.86,3.13-4.7,6.21-4.5,7.37l-12.31,14.43.76.65,12.48-14.64c1.36-.31,3.95-2.31,6.52-5.12,3.21-3.52,5.15-6.97,4.34-7.72Z"/><path class="cls-1" d="M1568.11,752.4l-49.11-22.13c.74-2.2-3.32-6.08-9.25-8.77-6.07-2.76-11.79-3.23-12.78-1.06-.99,2.17,3.13,6.17,9.2,8.93,5.34,2.43,10.41,3.08,12.22,1.72l49.3,22.22.41-.91Z"/><path class="cls-1" d="M1568.06,752.38l-56.49-18.83c0-2.33-6.09-6.19-14.2-8.89-8.57-2.86-16.13-3.34-16.89-1.07-.76,2.27,5.58,6.42,14.15,9.28,7.81,2.61,14.77,3.23,16.51,1.6l56.6,18.87.32-.95Z"/><ellipse class="cls-1" cx="1520.54" cy="743.82" rx="3.8" ry="16.05" transform="translate(546.43 2128.16) rotate(-80.93)"/><path class="cls-1" d="M1567.93,753.36l-.06-1-23.54,1.37c-.86-2.51-8.77-4.17-18.32-3.74-10.05.45-18.1,3.03-17.97,5.76s8.37,4.58,18.42,4.14c9.3-.42,16.87-2.66,17.85-5.15l23.63-1.37Z"/><path class="cls-1" d="M1568.37,752.69l-21.28-60.49c2.19-1.39,2.65-6.12.96-11.1-1.83-5.37-5.47-9-8.13-8.09-2.66.9-3.33,5.99-1.5,11.37,1.74,5.12,5.12,8.64,7.74,8.18l21.27,60.47.94-.33Z"/><path class="cls-1" d="M1568.39,752.76l-13.27-66.11c3.39-1.15,4.93-7.85,3.43-15.4-1.56-7.85-5.8-13.62-9.48-12.89-3.68.73-5.39,7.68-3.83,15.53,1.48,7.44,5.37,13,8.9,12.94l13.27,66.13.98-.2Z"/><path class="cls-1" d="M1584.95,680.39c-2.12-.51-5.36,5.37-7.25,13.15-1.7,7-1.71,13.12-.16,14.66l-10.14,44.55.97.22,10.1-44.4c2.11-.18,5.1-5.83,6.88-13.17,1.89-7.78,1.7-14.49-.42-15.01Z"/><path class="cls-11" d="M1598.96,671.88c-2.34-.96-7.95,7.3-12.54,18.46-4.37,10.63-6.22,20.03-4.37,21.73l-14.62,40.61.94.34,14.66-40.72c2.62-.53,7.67-8.29,11.86-18.49,4.59-11.16,6.41-20.98,4.07-21.94Z"/><path d="M1568.52,753.35l-1.41-.51.08-.24,14.57-40.47c-1.77-2.07.1-11.36,4.42-21.89,2.22-5.41,4.76-10.32,7.14-13.82,1.73-2.54,4.12-5.44,5.73-4.78h0c2.8,1.15.19,12.23-3.94,22.27-4.14,10.07-9.1,17.81-11.9,18.6l-14.7,40.83ZM1567.75,752.54l.47.17,14.62-40.61.14-.03c2.57-.52,7.59-8.4,11.68-18.34,4.91-11.95,6.14-20.82,4.21-21.62h0c-.98-.4-2.9,1.31-5.13,4.6-2.36,3.47-4.88,8.35-7.09,13.73-4.71,11.45-5.96,20.05-4.43,21.45l.12.11-.06.16-14.53,40.38Z"/><path class="cls-1" d="M1612.07,680.45c-2.16-1.32-8.05,4.39-13.17,12.76-4.78,7.81-7.18,15.17-5.72,17.18l-25.7,42.21.85.52,25.71-42.21c2.46.36,7.91-5.12,12.68-12.93,5.11-8.37,7.51-16.22,5.35-17.54Z"/><path class="cls-1" d="M1578.16,668.54c.41-6.97-1.31-12.74-3.85-12.89s-4.93,5.37-5.35,12.34c-.41,6.83,1.24,12.49,3.7,12.86l-5.26,71.97,1,.07,5.27-72.18c2.2-.97,4.12-6,4.48-12.17Z"/><path class="cls-1" d="M1568.4,752.84l-1.5-49.51c2.14-1.08,3.52-6.38,3.15-12.67-.41-6.97-2.8-12.5-5.34-12.35-2.54.15-4.27,5.92-3.86,12.89.39,6.7,2.62,12.06,5.05,12.32l1.49,49.35,1-.03Z"/><path class="cls-7" d="M1566.49,753.57c-8.68-4.95-32.85-21.64-30.29-43.42.02-.21.08-.4.16-.59.87-2.01,6.31-12.42,19.99,5.34.07.09.13.19.19.29.93,1.76,11.03,20.11,12.91,36.42.19,1.62-1.53,2.78-2.95,1.97Z"/></g></g><g id="ROOTS"><path class="cls-15" d="M1594.87,1068.07c16.23,63.62,36.62,131.84,90.08,174.16,15.42,12.49,33.17,22.26,50.91,31.13,14.09,7.5,34.3,15.58,42.73,29.77,1.75,3.15,2.9,6.58,3.14,10.03-3.47-9.78-12.61-15.2-21.66-19.05-12.5-5.28-25.67-9.05-38.35-14.13-16.44-6.36-32.16-14.37-46.58-24.95-57.95-42.26-80.39-118.06-80.27-186.96h0Z"/><path class="cls-15" d="M1591.31,1064.34c17.65,61.91,27.99,146.61-59.22,150.81-24.56,1.36-48.48-3.16-72.63-5.35-7.31-.44-15-1.3-22,1.22-4.6,1.62-6.29,6.12-5.29,10.71-1.44-4.8.08-9.57,4.82-11.73,7.03-3.23,15.03-3.03,22.59-3.2,12.14.03,24.18.81,36.16,1,78.11,2.35,103.41-26.02,83.53-102.68-2.97-11.22-6.68-22.33-10.78-33.32,0,0,22.81-7.46,22.81-7.46h0Z"/><path class="cls-15" d="M1605.33,1064.34c19.98,67.55,57.86,139.72,133.02,153.91,24.09,5.25,48.62,4.31,73.46,5.92,11.32.95,24.12,2.6,33.44,10.18,3.94,3.29,6.93,7.43,9.87,11.42,5.58,7.81,10.3,16.22,14.23,24.95,27.57,60.79,9.72,126.02-28.24,177.83-7.28,10.12-15.16,19.79-23.48,29.04,15.98-18.99,30.25-39.57,41.02-61.94,21.88-44.49,26.56-96.66,4.08-141.82-4-8.16-8.72-15.96-14.22-23.16-3.51-4.45-6.9-9-12-11.52-7.74-3.83-16.45-4.38-25.25-4.75-24.81-.42-50.41,1.59-75.39-2.7-54.08-7.96-94.8-43.98-121.54-90.09-13.16-22.21-23.3-45.83-31.8-69.82l22.81-7.46h0Z"/><path class="cls-15" d="M1600.78,1116.47c18.94,69.31,11.11,143.26-62.35,174.6-31.43,13.36-65.93,16.49-99.65,16.18-33.21-.52-66.14-4.73-98.78-10.49-32.41-5.53-64.16-13.52-96.45-18.97-7.12-.82-28.98-5.15-27.37,5.79-2.21-6.79,6.01-9.13,11.11-9.83,16.54-1.89,33.21.33,49.6,1.9,53.99,6.08,107.7,14.76,162,14.8,21.25.03,42.64-1.29,63.39-5.51,91.68-18.09,107.01-85.71,98.48-168.47h0Z"/><path class="cls-15" d="M1601.34,1090.68c15.61,77.9,69.42,86.13,138.62,90.28,32.73,2.8,77.25,2.41,101.99,28.76,40.69,44.23-8.47,140.23-32.83,184.46-3.83,6.91-7.84,13.71-11.97,20.44,0,0,5.77-14.68,5.77-14.68,15.9-41.85,48.78-119.03,36.45-161.87-8.33-29.63-42.85-34.74-69.63-37.99-20.75-2.44-41.85-3.58-62.71-6.8-60.97-8.54-103.55-36.53-105.7-102.6h0Z"/></g><g id="POINTER_ROOT"><path class="cls-15" d="M1593.39,1090.47c2.05,1.64,4.07,3.34,6.03,5.11,1.98,1.75,3.88,3.6,5.73,5.51,3.68,3.84,7.19,7.92,10.18,12.48,3.01,4.53,5.6,9.48,7.36,14.87,1.71,5.39,2.59,11.24,2.12,17.09-.42,5.84-2.03,11.6-4.49,16.81-2.44,5.24-5.61,10-9.13,14.34-3.52,4.35-7.38,8.3-11.43,11.97-4.04,3.67-8.22,7.11-12.53,10.32-17.18,12.91-35.59,23.21-53.21,33.93-8.79,5.36-17.53,10.66-25.43,16.57-3.95,2.93-7.65,6.05-10.82,9.36-3.14,3.31-5.65,6.91-6.75,10.54-.28.91-.48,1.82-.61,2.73-.05.46-.1.92-.11,1.39l-.02.35v.47s.03.94.03.94c.02,1.26.06,2.51.13,3.77.05,1.26.13,2.51.22,3.77.36,5.02.96,10.04,1.81,15.02.86,4.98,1.97,9.93,3.32,14.83,1.38,4.89,2.98,9.73,4.82,14.5,7.33,19.11,18.44,36.78,31.39,52.88,12.98,16.13,27.67,30.86,43.03,44.85,15.35,14.02,31.36,27.35,47.19,41.02,7.91,6.84,15.81,13.74,23.56,20.85,3.86,3.58,7.68,7.2,11.47,10.88,3.79,3.67,7.53,7.42,11.16,11.27,14.59,15.35,28.22,31.99,39.44,50.52,2.8,4.63,5.45,9.37,7.9,14.22,2.44,4.87,4.68,9.84,6.71,14.92,4.07,10.15,7.23,20.72,9.34,31.52,1.05,5.4,1.8,10.86,2.31,16.33.5,5.5.78,10.91.7,16.52-.14,11.16-1.68,22.55-5.12,33.38-3.4,10.85-8.49,21.03-14.46,30.25-5.96,9.25-12.61,17.68-19.23,25.83-6.66,8.14-13.27,16.06-19.53,24.15-6.28,8.07-12.12,16.36-17.51,24.93-5.36,8.58-10.16,17.5-14.33,26.73-4.14,9.24-7.81,18.74-10.83,28.49-3.08,9.73-5.47,19.7-7.55,29.76-2.06,10.07-3.59,20.27-4.8,30.54l-7.31-.56c.85-21.03,3.33-42.17,8.54-62.85,5.05-20.71,13.09-40.87,23.64-59.59,5.25-9.37,11.19-18.32,17.39-26.96,6.2-8.64,12.74-16.9,19.03-25.11,6.3-8.2,12.41-16.31,17.55-24.73,5.12-8.42,9.38-17.08,12.08-26.2,2.7-9.1,4.08-18.58,4.16-28.26,0-1.21.02-2.41-.01-3.64l-.11-3.7c-.09-2.46-.23-4.93-.44-7.38-.4-4.91-1.06-9.8-1.91-14.65-3.29-19.45-10.58-38.16-20.46-55.62-9.88-17.49-22.38-33.67-35.87-49.1-6.8-7.68-13.74-15.31-20.94-22.73-7.15-7.47-14.44-14.87-21.82-22.2-14.77-14.67-29.79-29.21-44.53-44.07-14.71-14.88-29.21-30.07-42.43-46.42-13.19-16.34-25.16-33.88-34.2-53.2-2.26-4.82-4.29-9.77-6.1-14.8-1.83-5.03-3.44-10.15-4.79-15.36-1.34-5.21-2.42-10.5-3.24-15.83-.21-1.33-.4-2.67-.57-4.01-.18-1.34-.33-2.68-.47-4.03l-.11-1.01-.05-.5-.04-.62c-.07-.84-.07-1.68-.06-2.52.05-1.68.26-3.35.59-4.98.72-3.24,1.95-6.25,3.44-8.97,1.5-2.71,3.22-5.19,5.07-7.46,3.68-4.57,7.84-8.37,12.07-11.89,8.53-6.96,17.49-12.76,26.52-18.22,18.04-10.86,36.31-20.62,53.04-32.06,8.32-5.73,16.25-11.9,22.86-18.99,3.28-3.56,6.2-7.35,8.51-11.4,2.3-4.06,3.93-8.39,4.68-12.91,1.55-9.05-.78-18.79-5.31-27.69-4.51-8.96-10.85-17.21-17.67-25.06l1.17-1.23Z"/><polygon class="cls-15" points="1617.17 1966.74 1584.23 1881.53 1618.4 1902.25 1653.32 1882.84 1617.17 1966.74"/></g></svg>