{
  "accessors": [
    {
      "bufferView": 2,
      "componentType": 5126,
      "count": 40402,
      "max": [
        67.61791229248047,
        74.06160736083984,
        94.27957153320313
      ],
      "min": [
        -78.63607025146484,
        -71.7139892578125,
        -0.024578094482421875
      ],
      "type": "VEC3"
    },
    {
      "bufferView": 2,
      "byteOffset": 484824,
      "componentType": 5126,
      "count": 40402,
      "type": "VEC3"
    },
    {
      "bufferView": 1,
      "componentType": 5126,
      "count": 40402,
      "type": "VEC2"
    },
    {
      "bufferView": 0,
      "componentType": 5125,
      "count": 163584,
      "type": "SCALAR"
    },
    {
      "bufferView": 2,
      "byteOffset": 969648,
      "componentType": 5126,
      "count": 40402,
      "max": [
        67.61791229248047,
        74.06160736083984,
        94.27957153320313
      ],
      "min": [
        -78.63607025146484,
        -71.7139892578125,
        -0.024578094482421875
      ],
      "type": "VEC3"
    },
    {
      "bufferView": 2,
      "byteOffset": 1454472,
      "componentType": 5126,
      "count": 40402,
      "type": "VEC3"
    },
    {
      "bufferView": 1,
      "byteOffset": 323216,
      "componentType": 5126,
      "count": 40402,
      "type": "VEC2"
    },
    {
      "bufferView": 0,
      "byteOffset": 654336,
      "componentType": 5125,
      "count": 163584,
      "type": "SCALAR"
    },
    {
      "bufferView": 2,
      "byteOffset": 1939296,
      "componentType": 5126,
      "count": 40402,
      "max": [
        67.61791229248047,
        74.06160736083984,
        94.27957153320313
      ],
      "min": [
        -78.63607025146484,
        -71.7139892578125,
        -0.024578094482421875
      ],
      "type": "VEC3"
    },
    {
      "bufferView": 2,
      "byteOffset": 2424120,
      "componentType": 5126,
      "count": 40402,
      "type": "VEC3"
    },
    {
      "bufferView": 1,
      "byteOffset": 646432,
      "componentType": 5126,
      "count": 40402,
      "type": "VEC2"
    },
    {
      "bufferView": 0,
      "byteOffset": 1308672,
      "componentType": 5125,
      "count": 163584,
      "type": "SCALAR"
    },
    {
      "bufferView": 2,
      "byteOffset": 2908944,
      "componentType": 5126,
      "count": 40402,
      "max": [
        67.61791229248047,
        74.06160736083984,
        94.27957153320313
      ],
      "min": [
        -78.63607025146484,
        -71.7139892578125,
        -0.024578094482421875
      ],
      "type": "VEC3"
    },
    {
      "bufferView": 2,
      "byteOffset": 3393768,
      "componentType": 5126,
      "count": 40402,
      "type": "VEC3"
    },
    {
      "bufferView": 1,
      "byteOffset": 969648,
      "componentType": 5126,
      "count": 40402,
      "type": "VEC2"
    },
    {
      "bufferView": 0,
      "byteOffset": 1963008,
      "componentType": 5125,
      "count": 163584,
      "type": "SCALAR"
    },
    {
      "bufferView": 2,
      "byteOffset": 3878592,
      "componentType": 5126,
      "count": 40402,
      "max": [
        67.61791229248047,
        74.06160736083984,
        94.27957153320313
      ],
      "min": [
        -78.63607025146484,
        -71.7139892578125,
        -0.024578094482421875
      ],
      "type": "VEC3"
    },
    {
      "bufferView": 2,
      "byteOffset": 4363416,
      "componentType": 5126,
      "count": 40402,
      "type": "VEC3"
    },
    {
      "bufferView": 1,
      "byteOffset": 1292864,
      "componentType": 5126,
      "count": 40402,
      "type": "VEC2"
    },
    {
      "bufferView": 0,
      "byteOffset": 2617344,
      "componentType": 5125,
      "count": 163584,
      "type": "SCALAR"
    }
  ],
  "asset": {
    "generator": "fab-model-conversion",
    "version": "2.0"
  },
  "bufferViews": [
    {
      "buffer": 0,
      "byteLength": 3271680,
      "target": 34963
    },
    {
      "buffer": 0,
      "byteLength": 1616080,
      "byteOffset": 3271680,
      "byteStride": 8,
      "target": 34962
    },
    {
      "buffer": 0,
      "byteLength": 4848240,
      "byteOffset": 4887760,
      "byteStride": 12,
      "target": 34962
    }
  ],
  "buffers": [
    {
      "byteLength": 9736000,
      "uri": "scene.bin"
    }
  ],
  "extensionsUsed": [
    "KHR_materials_specular"
  ],
  "images": [
    {
      "uri": "textures/Material_0_baseColor.png"
    },
    {
      "uri": "textures/Material_1_baseColor.png"
    },
    {
      "uri": "textures/Material_2_baseColor.png"
    },
    {
      "uri": "textures/Material_3_baseColor.png"
    },
    {
      "uri": "textures/Material_4_baseColor.png"
    }
  ],
  "materials": [
    {
      "doubleSided": true,
      "extensions": {
        "KHR_materials_specular": {
          "specularColorFactor": [
            1.0,
            1.0,
            1.0
          ],
          "specularFactor": 0.0
        }
      },
      "name": "Material_0",
      "pbrMetallicRoughness": {
        "baseColorTexture": {
          "index": 0
        },
        "metallicFactor": 0.0,
        "roughnessFactor": 0.0
      }
    },
    {
      "doubleSided": true,
      "extensions": {
        "KHR_materials_specular": {
          "specularColorFactor": [
            1.0,
            1.0,
            1.0
          ],
          "specularFactor": 0.0
        }
      },
      "name": "Material_1",
      "pbrMetallicRoughness": {
        "baseColorTexture": {
          "index": 1
        },
        "metallicFactor": 0.0,
        "roughnessFactor": 0.0
      }
    },
    {
      "doubleSided": true,
      "extensions": {
        "KHR_materials_specular": {
          "specularColorFactor": [
            1.0,
            1.0,
            1.0
          ],
          "specularFactor": 0.0
        }
      },
      "name": "Material_2",
      "pbrMetallicRoughness": {
        "baseColorTexture": {
          "index": 2
        },
        "metallicFactor": 0.0,
        "roughnessFactor": 0.0
      }
    },
    {
      "doubleSided": true,
      "extensions": {
        "KHR_materials_specular": {
          "specularColorFactor": [
            1.0,
            1.0,
            1.0
          ],
          "specularFactor": 0.0
        }
      },
      "name": "Material_3",
      "pbrMetallicRoughness": {
        "baseColorTexture": {
          "index": 3
        },
        "metallicFactor": 0.0,
        "roughnessFactor": 0.0
      }
    },
    {
      "doubleSided": true,
      "extensions": {
        "KHR_materials_specular": {
          "specularColorFactor": [
            1.0,
            1.0,
            1.0
          ],
          "specularFactor": 0.0
        }
      },
      "name": "Material_4",
      "pbrMetallicRoughness": {
        "baseColorTexture": {
          "index": 4
        },
        "metallicFactor": 0.0,
        "roughnessFactor": 0.0
      }
    }
  ],
  "meshes": [
    {
      "name": "Flower_Sanguinaria canadensis1_Material #0_0",
      "primitives": [
        {
          "attributes": {
            "NORMAL": 1,
            "POSITION": 0,
            "TEXCOORD_0": 2
          },
          "indices": 3,
          "material": 0,
          "mode": 4
        }
      ]
    },
    {
      "name": "Flower_Sanguinaria canadensis2_Material #1_0",
      "primitives": [
        {
          "attributes": {
            "NORMAL": 5,
            "POSITION": 4,
            "TEXCOORD_0": 6
          },
          "indices": 7,
          "material": 1,
          "mode": 4
        }
      ]
    },
    {
      "name": "Flower_Sanguinaria canadensis3_Material #2_0",
      "primitives": [
        {
          "attributes": {
            "NORMAL": 9,
            "POSITION": 8,
            "TEXCOORD_0": 10
          },
          "indices": 11,
          "material": 2,
          "mode": 4
        }
      ]
    },
    {
      "name": "Flower_Sanguinaria canadensis4_Material #3_0",
      "primitives": [
        {
          "attributes": {
            "NORMAL": 13,
            "POSITION": 12,
            "TEXCOORD_0": 14
          },
          "indices": 15,
          "material": 3,
          "mode": 4
        }
      ]
    },
    {
      "name": "Flower_Sanguinaria canadensis5_Material #4_0",
      "primitives": [
        {
          "attributes": {
            "NORMAL": 17,
            "POSITION": 16,
            "TEXCOORD_0": 18
          },
          "indices": 19,
          "material": 4,
          "mode": 4
        }
      ]
    }
  ],
  "nodes": [
    {
      "children": [
        1
      ],
      "matrix": [
        1.0,
        0.0,
        0.0,
        0.0,
        0.0,
        2.220446049250313e-16,
        -1.0,
        0.0,
        0.0,
        1.0,
        2.220446049250313e-16,
        0.0,
        0.0,
        0.0,
        0.0,
        1.0
      ],
      "name": "Sketchfab_model"
    },
    {
      "children": [
        2
      ],
      "matrix": [
        1.0,
        0.0,
        0.0,
        0.0,
        0.0,
        0.0,
        1.0,
        0.0,
        0.0,
        -1.0,
        0.0,
        0.0,
        0.0,
        0.0,
        0.0,
        1.0
      ],
      "name": "Flower_Sanguinaria canadensis.FBX"
    },
    {
      "children": [
        3,
        5,
        7,
        9,
        11
      ],
      "name": "RootNode"
    },
    {
      "children": [
        4
      ],
      "matrix": [
        1.0,
        0.0,
        0.0,
        0.0,
        0.0,
        2.220446049250313e-16,
        -1.0,
        0.0,
        0.0,
        1.0,
        2.220446049250313e-16,
        0.0,
        0.0,
        0.0,
        0.0,
        1.0
      ],
      "name": "Flower_Sanguinaria canadensis1"
    },
    {
      "mesh": 0,
      "name": "Flower_Sanguinaria canadensis1_Material #0_0"
    },
    {
      "children": [
        6
      ],
      "matrix": [
        1.0,
        0.0,
        0.0,
        0.0,
        0.0,
        2.220446049250313e-16,
        -1.0,
        0.0,
        0.0,
        1.0,
        2.220446049250313e-16,
        0.0,
        143.71202087402344,
        0.0,
        0.0,
        1.0
      ],
      "name": "Flower_Sanguinaria canadensis2"
    },
    {
      "mesh": 1,
      "name": "Flower_Sanguinaria canadensis2_Material #1_0"
    },
    {
      "children": [
        8
      ],
      "matrix": [
        1.0,
        0.0,
        0.0,
        0.0,
        0.0,
        2.220446049250313e-16,
        -1.0,
        0.0,
        0.0,
        1.0,
        2.220446049250313e-16,
        0.0,
        143.71202087402344,
        0.0,
        223.8772430419922,
        1.0
      ],
      "name": "Flower_Sanguinaria canadensis3"
    },
    {
      "mesh": 2,
      "name": "Flower_Sanguinaria canadensis3_Material #2_0"
    },
    {
      "children": [
        10
      ],
      "matrix": [
        1.0,
        0.0,
        0.0,
        0.0,
        0.0,
        2.220446049250313e-16,
        -1.0,
        0.0,
        0.0,
        1.0,
        2.220446049250313e-16,
        0.0,
        -18.184738159179688,
        0.0,
        223.8772430419922,
        1.0
      ],
      "name": "Flower_Sanguinaria canadensis4"
    },
    {
      "mesh": 3,
      "name": "Flower_Sanguinaria canadensis4_Material #3_0"
    },
    {
      "children": [
        12
      ],
      "matrix": [
        1.0,
        0.0,
        0.0,
        0.0,
        0.0,
        2.220446049250313e-16,
        -1.0,
        0.0,
        0.0,
        1.0,
        2.220446049250313e-16,
        0.0,
        74.3046875,
        0.0,
        108.04031372070313,
        1.0
      ],
      "name": "Flower_Sanguinaria canadensis5"
    },
    {
      "mesh": 4,
      "name": "Flower_Sanguinaria canadensis5_Material #4_0"
    }
  ],
  "samplers": [
    {
      "magFilter": 9729,
      "minFilter": 9987,
      "wrapS": 10497,
      "wrapT": 10497
    }
  ],
  "scene": 0,
  "scenes": [
    {
      "name": "Sketchfab_Scene",
      "nodes": [
        0
      ]
    }
  ],
  "textures": [
    {
      "sampler": 0,
      "source": 0
    },
    {
      "sampler": 0,
      "source": 1
    },
    {
      "sampler": 0,
      "source": 2
    },
    {
      "sampler": 0,
      "source": 3
    },
    {
      "sampler": 0,
      "source": 4
    }
  ]
}
